# xmcd
# 
# Track frame offsets:
#     150
#     11119
#     29813
#     43424
#     66883
#     81362
#     102464
#     116102
#     130589
#     150226
#     161723
#     185176
# 
# Disc length: 2690
# 
# Revision: 1
# Processed by: cddbd v1.5.2PL0 Copyright (c) Steve Scherf et al.
# Submitted via: fre:ac v1.0.17
# 
DISCID=ac0a800c
DTITLE=Blue Rhythm Boys - Come On if You're Comin'
DYEAR=2010
DGENRE=Swing
TTITLE0=Lulu's Back in Town
TTITLE1=Come On if You're Comin'
TTITLE2=Fourth of July
TTITLE3=Duck's Yas Yas Yas
TTITLE4=Whoa Babe
TTITLE5=Denomination Blues
TTITLE6=Gypsyfied
TTITLE7=Don't Roll Those Bloodshot Eyes at Me
TTITLE8=Prisoner of Love
TTITLE9=Jump Little Children
TTITLE10=Mean Old World
TTITLE11=Sweet Temptation
EXTD=
EXTT0=
EXTT1=
EXTT2=
EXTT3=
EXTT4=
EXTT5=
EXTT6=
EXTT7=
EXTT8=
EXTT9=
EXTT10=
EXTT11=
PLAYORDER=
